<?xml version="1.0" ?>

<!-- Uploaded to: SVG Repo, www.svgrepo.com, Generator: SVG Repo Mixer Tools -->
<svg  class="svg-icon" fill="currentColor" width="800px" height="800px" viewBox="0 0 32 32" xmlns="http://www.w3.org/2000/svg">

<title/>

<g id="Drive">

<path d="M5.5,30A3.35,3.35,0,0,1,3,29a3.35,3.35,0,0,1-1-2.48V5.5A3.35,3.35,0,0,1,3,3,3.35,3.35,0,0,1,5.5,2h21A3.35,3.35,0,0,1,29,3,3.35,3.35,0,0,1,30,5.5v21A3.52,3.52,0,0,1,26.49,30Zm10-17L12.69,8.14l-6.2,10.7,2.81,4.8Zm9.94,6.45H13.23q-.11,0-2.89,4.78H22.67ZM19.14,7.59H13.77L19.9,18.16l.17.1h5.37Q19.29,7.58,19.14,7.59Z"/>

</g>

</svg>